<svg xmlns="http://www.w3.org/2000/svg" width="24" height="24" viewBox="0 0 24 24" fill="none">
  <path
    d="M3.75 8.75C3.75 7.7835 4.5335 7 5.5 7H9.03553C9.49952 7 9.9445 7.18437 10.2726 7.51256L11.2374 8.47741C11.5656 8.80559 12.0106 8.98997 12.4745 8.98997H18.5C19.4665 8.98997 20.25 9.77347 20.25 10.74V15.25C20.25 16.2165 19.4665 17 18.5 17H5.5C4.5335 17 3.75 16.2165 3.75 15.25V8.75Z"
    stroke="#fff"
    stroke-width="1.7"
    stroke-linejoin="round"
  />
  <path
    d="M4.5 10.75H20.25L18.8073 16.2807C18.6057 17.0536 17.9079 17.5938 17.1091 17.5938H5.95416C4.98767 17.5938 4.20416 16.8103 4.20416 15.8438C4.20416 15.6943 4.22328 15.5453 4.26106 15.4006L5.45893 10.808C5.56923 10.3851 5.95131 10.0898 6.38835 10.0898H18"
    stroke="#fff"
    stroke-width="1.7"
    stroke-linecap="round"
    stroke-linejoin="round"
  />
</svg>
