<svg xmlns="http://www.w3.org/2000/svg" width="24" height="24" viewBox="0 0 24 24" fill="none">
  <path
    d="M6.75 8.25C7.57843 8.25 8.25 7.57843 8.25 6.75C8.25 5.92157 7.57843 5.25 6.75 5.25C5.92157 5.25 5.25 5.92157 5.25 6.75C5.25 7.57843 5.92157 8.25 6.75 8.25Z"
    fill="#fff"
  />
  <path d="M5.625 10.5H7.875V18.375H5.625V10.5Z" fill="#fff" />
  <path
    d="M10.5 10.5H12.6562V11.5781H12.6875C12.9879 11.0083 13.7232 10.4062 14.8203 10.4062C17.1018 10.4062 17.625 11.8732 17.625 14.0039V18.375H15.375V14.5C15.375 13.5758 15.3583 12.3887 14.0938 12.3887C12.8107 12.3887 12.625 13.3932 12.625 14.4355V18.375H10.5V10.5Z"
    fill="#fff"
  />
</svg>
