<svg width="433" height="345" viewBox="0 0 433 345" fill="none" xmlns="http://www.w3.org/2000/svg">
<path d="M268.74 10.575V11.495C268.74 12.325 268.07 12.995 267.24 12.995H165.52C164.69 12.995 164.01 12.325 164.01 11.495V10.575C164.01 9.74501 164.69 9.07501 165.52 9.07501H267.24C268.07 9.07501 268.74 9.74501 268.74 10.575Z" fill="#834601"/>
<path d="M235.78 255.755V264.505C235.78 268.715 232.35 272.145 228.14 272.145H204.6C200.39 272.145 196.96 268.715 196.96 264.505V255.755H235.78Z" fill="#FFCC73"/>
<path d="M252.21 258.025C253.43 259.465 253.94 261.355 253.61 263.215L249.6 286.285C249.07 289.345 246.43 291.565 243.33 291.565H189.42C186.32 291.565 183.68 289.345 183.15 286.285L179.13 263.215C178.81 261.355 179.32 259.465 180.53 258.025C181.75 256.585 183.52 255.755 185.41 255.755H187.96V264.505C187.96 273.685 195.43 281.145 204.6 281.145H228.14C237.32 281.145 244.78 273.685 244.78 264.505V255.755H247.34C249.23 255.755 251 256.585 252.21 258.025Z" fill="#FFCC73"/>
<path d="M380.03 330.475H351.66V335.675H380.03V330.475Z" fill="#834601"/>
<path d="M81.09 330.475H52.72V335.675H81.09V330.475Z" fill="#834601"/>
<path d="M423.75 82.575V301.075C423.75 312.325 414.6 321.475 403.36 321.475H29.4C18.15 321.475 9 312.325 9 301.075V82.575C9 71.325 18.15 62.185 29.4 62.185H32.52V227.745C32.52 257.195 56.47 281.145 85.92 281.145H173.12L174.28 287.825C175.56 295.205 181.93 300.565 189.42 300.565H243.33C250.82 300.565 257.19 295.205 258.47 287.825L259.63 281.145H346.84C376.28 281.145 400.24 257.195 400.24 227.745V62.185H403.36C414.6 62.185 423.75 71.325 423.75 82.575Z" fill="#834601"/>
<path d="M391.24 50.215V227.745C391.24 252.235 371.32 272.145 346.84 272.145H261.2L262.48 264.755C263.26 260.275 262.03 255.705 259.1 252.225C256.18 248.755 251.89 246.755 247.34 246.755H185.41C180.86 246.755 176.57 248.755 173.65 252.225C170.72 255.705 169.49 260.275 170.27 264.755L171.55 272.145H85.92C61.43 272.145 41.52 252.235 41.52 227.745V50.215H391.24Z" fill="#834601"/>
<path d="M432.75 82.575V301.075C432.75 317.285 419.56 330.475 403.36 330.475H389.03V344.675H342.66V330.475H90.09V344.675H43.72V330.475H29.4C13.19 330.475 0 317.285 0 301.075V82.575C0 66.365 13.19 53.185 29.4 53.185H32.52V41.215H144.99V21.045C144.99 14.395 149.5 8.78501 155.62 7.07501C157.07 3.00501 160.95 0.0750122 165.52 0.0750122H267.24C271.8 0.0750122 275.69 3.00501 277.13 7.07501C283.25 8.78501 287.76 14.395 287.76 21.045V41.215H400.24V53.185H403.36C419.56 53.185 432.75 66.365 432.75 82.575ZM423.75 301.075V82.575C423.75 71.325 414.6 62.185 403.36 62.185H400.24V227.745C400.24 257.195 376.28 281.145 346.84 281.145H259.63L258.47 287.825C257.19 295.205 250.82 300.565 243.33 300.565H189.42C181.93 300.565 175.56 295.205 174.28 287.825L173.12 281.145H85.92C56.47 281.145 32.52 257.195 32.52 227.745V62.185H29.4C18.15 62.185 9 71.325 9 82.575V301.075C9 312.325 18.15 321.475 29.4 321.475H403.36C414.6 321.475 423.75 312.325 423.75 301.075ZM391.24 227.745V50.215H41.52V227.745C41.52 252.235 61.43 272.145 85.92 272.145H171.55L170.27 264.755C169.49 260.275 170.72 255.705 173.65 252.225C176.57 248.755 180.86 246.755 185.41 246.755H247.34C251.89 246.755 256.18 248.755 259.1 252.225C262.03 255.705 263.26 260.275 262.48 264.755L261.2 272.145H346.84C371.32 272.145 391.24 252.235 391.24 227.745ZM380.03 335.675V330.475H351.66V335.675H380.03ZM278.76 41.215V21.045C278.76 19.195 277.84 17.555 276.43 16.555C274.64 19.795 271.19 21.995 267.24 21.995H165.52C161.56 21.995 158.11 19.795 156.32 16.555C154.91 17.555 153.99 19.195 153.99 21.045V41.215H278.76ZM268.74 11.495V10.575C268.74 9.74501 268.07 9.07501 267.24 9.07501H165.52C164.69 9.07501 164.01 9.74501 164.01 10.575V11.495C164.01 12.325 164.69 12.995 165.52 12.995H267.24C268.07 12.995 268.74 12.325 268.74 11.495ZM253.61 263.215C253.94 261.355 253.43 259.465 252.21 258.025C251 256.585 249.23 255.755 247.34 255.755H244.78V264.505C244.78 273.685 237.32 281.145 228.14 281.145H204.6C195.43 281.145 187.96 273.685 187.96 264.505V255.755H185.41C183.52 255.755 181.75 256.585 180.53 258.025C179.32 259.465 178.81 261.355 179.13 263.215L183.15 286.285C183.68 289.345 186.32 291.565 189.42 291.565H243.33C246.43 291.565 249.07 289.345 249.6 286.285L253.61 263.215ZM235.78 264.505V255.755H196.96V264.505C196.96 268.715 200.39 272.145 204.6 272.145H228.14C232.35 272.145 235.78 268.715 235.78 264.505ZM81.09 335.675V330.475H52.72V335.675H81.09Z" fill="black"/>
</svg>
